#N canvas 656 59 450 365 12;
#X text 19 12 Frequency;
#X msg 143 63 0;
#X obj 32 35 inlet;
#X obj 143 35 inlet;
#X text 124 12 Phase reset;
#X obj 32 90 * -1;
#X obj 99 90 * 2;
#X obj 32 116 phasor~;
#X obj 32 142 *~ 2;
#X obj 99 116 phasor~;
#X obj 85 170 +~;
#X obj 85 222 *~ 2;
#X obj 85 300 outlet~;
#X obj 85 196 -~ 1;
#X obj 85 248 -~ 1;
#X obj 85 274 clip~ -1 1;
#X connect 1 0 7 1;
#X connect 1 0 9 1;
#X connect 2 0 5 0;
#X connect 2 0 6 0;
#X connect 3 0 1 0;
#X connect 5 0 7 0;
#X connect 6 0 9 0;
#X connect 7 0 8 0;
#X connect 8 0 10 0;
#X connect 9 0 10 1;
#X connect 10 0 13 0;
#X connect 11 0 14 0;
#X connect 13 0 11 0;
#X connect 14 0 15 0;
#X connect 15 0 12 0;
