#N canvas 588 2 680 676 12;
#X text 19 12 Frequency;
#X msg 143 75 0;
#X obj 32 182 phasor~;
#X obj 32 206 *~ 2;
#X obj 32 230 clip~ 0 1;
#X obj 104 182 phasor~;
#X obj 104 206 *~ 2;
#X obj 104 230 clip~ 0 1;
#X obj 88 281 +~;
#X obj 30 370 outlet~;
#X obj 87 309 *~ 2;
#X obj 87 335 -~ 1;
#X obj 32 35 inlet;
#X obj 143 35 inlet;
#X text 124 12 Phase reset;
#X obj 104 158 * -1;
#X obj 104 254 -~ 1;
#X connect 1 0 2 1;
#X connect 1 0 5 1;
#X connect 2 0 3 0;
#X connect 3 0 4 0;
#X connect 4 0 8 0;
#X connect 5 0 6 0;
#X connect 6 0 7 0;
#X connect 7 0 16 0;
#X connect 8 0 10 0;
#X connect 10 0 11 0;
#X connect 11 0 9 0;
#X connect 12 0 2 0;
#X connect 12 0 15 0;
#X connect 13 0 1 0;
#X connect 15 0 5 0;
#X connect 16 0 8 1;
