#N canvas 895 178 1365 685 12;
#X obj 252 574 / 100;
#X text 179 531 unison pitch (%);
#X obj 35 39 inlet;
#X text 33 18 pitch (hz);
#X obj 155 371 *;
#X obj 170 317 pow;
#X msg 170 188 2, f 1;
#X obj 197 267 *;
#X obj 197 215 / 48;
#X obj 197 293 *;
#X text 185 242 x;
#X text 185 267 y;
#X text 185 293 z;
#X obj 197 241 * 1;
#X obj 170 161 t b b;
#X obj 170 141 bng 15 250 50 0 empty empty empty 17 7 0 10 -262144
-1 -1;
#X msg 197 188 1, f 1;
#X text 194 317 2^(xyz/48);
#X obj 314 91 t b f;
#X text 351 91 y;
#X text 240 574 z;
#X obj 289 574 t b f;
#X text 165 120 voice +1;
#X obj 35 397 wavegen;
#X obj 155 397 wavegen;
#X floatatom 367 531 3 0 3 0 - - -;
#X text 308 531 wave type;
#X obj 372 554 bng 15 250 50 0 empty empty empty 17 7 0 10 -262144
-1 -1;
#X text 301 552 reset phase;
#X obj 275 371 *;
#X obj 290 317 pow;
#X msg 290 188 2, f 1;
#X obj 317 267 *;
#X obj 317 215 / 48;
#X obj 317 293 *;
#X text 305 242 x;
#X text 305 267 y;
#X text 305 293 z;
#X obj 290 161 t b b;
#X obj 290 141 bng 15 250 50 0 empty empty empty 17 7 0 10 -262144
-1 -1;
#X msg 317 188 1, f 1;
#X obj 275 397 wavegen;
#X text 285 120 voice +2;
#X obj 317 241 * 2;
#X obj 395 371 *;
#X obj 410 317 pow;
#X msg 410 188 2, f 1;
#X obj 437 267 *;
#X obj 437 215 / 48;
#X obj 437 293 *;
#X text 425 242 x;
#X text 425 267 y;
#X text 425 293 z;
#X obj 410 161 t b b;
#X obj 410 141 bng 15 250 50 0 empty empty empty 17 7 0 10 -262144
-1 -1;
#X msg 437 188 1, f 1;
#X obj 395 397 wavegen;
#X text 405 120 voice +3;
#X obj 437 241 * 3;
#X obj 515 371 *;
#X obj 530 317 pow;
#X msg 530 188 2, f 1;
#X obj 557 267 *;
#X obj 557 215 / 48;
#X obj 557 293 *;
#X text 545 242 x;
#X text 545 267 y;
#X text 545 293 z;
#X obj 530 161 t b b;
#X obj 530 141 bng 15 250 50 0 empty empty empty 17 7 0 10 -262144
-1 -1;
#X msg 557 188 1, f 1;
#X obj 515 397 wavegen;
#X text 525 120 voice +4;
#X obj 557 241 * 4;
#X obj 204 39 inlet;
#X text 202 18 unison pitch (%);
#X obj 184 551 hsl 100 20 0 100 0 0 empty empty empty -2 -8 0 10 -262144
-1 -1 9900 0;
#X obj 204 65 ctrlbound 0 100;
#X obj 170 343 t b f;
#X obj 110 39 inlet;
#X text 108 18 waveform type;
#X obj 110 65 ctrlbound 0 3;
#X obj 35 66 t b f;
#X obj 290 343 t b f;
#X obj 410 343 t b f;
#X obj 530 343 t b f;
#X text 314 317 2^(2xyz/48);
#X text 554 317 2^(4xyz/48);
#X text 434 317 2^(3xyz/48);
#X obj 635 371 *;
#X obj 650 317 pow;
#X msg 650 188 2, f 1;
#X obj 677 267 *;
#X obj 677 215 / 48;
#X obj 677 293 *;
#X text 665 242 x;
#X text 665 267 y;
#X text 665 293 z;
#X obj 650 161 t b b;
#X obj 650 141 bng 15 250 50 0 empty empty empty 17 7 0 10 -262144
-1 -1;
#X msg 677 188 1, f 1;
#X obj 635 397 wavegen;
#X obj 755 371 *;
#X obj 770 317 pow;
#X msg 770 188 2, f 1;
#X obj 797 267 *;
#X obj 797 215 / 48;
#X obj 797 293 *;
#X text 785 242 x;
#X text 785 267 y;
#X text 785 293 z;
#X obj 770 161 t b b;
#X obj 770 141 bng 15 250 50 0 empty empty empty 17 7 0 10 -262144
-1 -1;
#X msg 797 188 1, f 1;
#X obj 755 397 wavegen;
#X obj 875 371 *;
#X obj 890 317 pow;
#X msg 890 188 2, f 1;
#X obj 917 267 *;
#X obj 917 215 / 48;
#X obj 917 293 *;
#X text 905 242 x;
#X text 905 267 y;
#X text 905 293 z;
#X obj 890 161 t b b;
#X obj 890 141 bng 15 250 50 0 empty empty empty 17 7 0 10 -262144
-1 -1;
#X msg 917 188 1, f 1;
#X obj 875 397 wavegen;
#X obj 995 371 *;
#X obj 1010 317 pow;
#X msg 1010 188 2, f 1;
#X obj 1037 267 *;
#X obj 1037 215 / 48;
#X obj 1037 293 *;
#X text 1025 242 x;
#X text 1025 267 y;
#X text 1025 293 z;
#X obj 1010 161 t b b;
#X obj 1010 141 bng 15 250 50 0 empty empty empty 17 7 0 10 -262144
-1 -1;
#X msg 1037 188 1, f 1;
#X obj 995 397 wavegen;
#X obj 650 343 t b f;
#X obj 770 343 t b f;
#X obj 890 343 t b f;
#X obj 1010 343 t b f;
#X text 645 120 voice -1;
#X text 765 120 voice -2;
#X text 885 120 voice -3;
#X text 1005 120 voice -4;
#X text 674 317 2^(-xyz/48);
#X text 794 317 2^(-2xyz/48);
#X text 914 317 2^(-3xyz/48);
#X text 1034 317 2^(-4xyz/48);
#X text 44 377 central voice;
#X obj 677 241 * -1;
#X obj 797 241 * -2;
#X obj 917 241 * -3;
#X obj 1037 241 * -4;
#X obj 314 39 inlet;
#X text 312 18 max pitch multiplier;
#X obj 314 65 ctrlbound 0 12;
#X obj 525 533 +~;
#X obj 555 533 +~;
#X obj 585 533 +~;
#X obj 615 533 +~;
#X obj 556 558 +~;
#X obj 586 558 +~;
#X obj 571 582 +~;
#X obj 653 534 +~;
#X obj 653 584 outlet~;
#X obj 653 559 /~ 9;
#X obj 449 39 inlet;
#X text 447 18 reset phase;
#X obj 449 65 bng 15 250 50 0 empty empty empty 17 7 0 10 -262144 -1
-1;
#X obj 573 39 loadbang;
#X msg 573 65 1, f 1;
#X msg 593 65 0, f 1;
#X text 31 531 x: scaling for voice;
#X text 31 548 y: max pitch multiplier;
#X text 31 565 z: unison pitch slider;
#X connect 0 0 21 0;
#X connect 2 0 82 0;
#X connect 4 0 24 0;
#X connect 5 0 78 0;
#X connect 6 0 5 0;
#X connect 7 0 9 0;
#X connect 8 0 13 0;
#X connect 9 0 5 1;
#X connect 13 0 7 0;
#X connect 14 0 6 0;
#X connect 14 1 16 0;
#X connect 15 0 14 0;
#X connect 16 0 8 0;
#X connect 18 0 15 0;
#X connect 18 0 39 0;
#X connect 18 0 54 0;
#X connect 18 0 69 0;
#X connect 18 0 99 0;
#X connect 18 0 112 0;
#X connect 18 0 125 0;
#X connect 18 0 138 0;
#X connect 18 1 7 1;
#X connect 18 1 32 1;
#X connect 18 1 47 1;
#X connect 18 1 62 1;
#X connect 18 1 92 1;
#X connect 18 1 105 1;
#X connect 18 1 118 1;
#X connect 18 1 131 1;
#X connect 21 0 15 0;
#X connect 21 0 54 0;
#X connect 21 0 69 0;
#X connect 21 0 39 0;
#X connect 21 0 99 0;
#X connect 21 0 112 0;
#X connect 21 0 125 0;
#X connect 21 0 138 0;
#X connect 21 1 9 1;
#X connect 21 1 64 1;
#X connect 21 1 49 1;
#X connect 21 1 34 1;
#X connect 21 1 94 1;
#X connect 21 1 107 1;
#X connect 21 1 120 1;
#X connect 21 1 133 1;
#X connect 23 0 168 0;
#X connect 24 0 161 0;
#X connect 25 0 23 1;
#X connect 25 0 24 1;
#X connect 25 0 41 1;
#X connect 25 0 56 1;
#X connect 25 0 71 1;
#X connect 25 0 101 1;
#X connect 25 0 114 1;
#X connect 25 0 127 1;
#X connect 25 0 140 1;
#X connect 27 0 23 2;
#X connect 27 0 24 2;
#X connect 27 0 71 2;
#X connect 27 0 41 2;
#X connect 27 0 56 2;
#X connect 27 0 101 2;
#X connect 27 0 114 2;
#X connect 27 0 127 2;
#X connect 27 0 140 2;
#X connect 29 0 41 0;
#X connect 30 0 83 0;
#X connect 31 0 30 0;
#X connect 32 0 34 0;
#X connect 33 0 43 0;
#X connect 34 0 30 1;
#X connect 38 0 31 0;
#X connect 38 1 40 0;
#X connect 39 0 38 0;
#X connect 40 0 33 0;
#X connect 41 0 161 1;
#X connect 43 0 32 0;
#X connect 44 0 56 0;
#X connect 45 0 84 0;
#X connect 46 0 45 0;
#X connect 47 0 49 0;
#X connect 48 0 58 0;
#X connect 49 0 45 1;
#X connect 53 0 46 0;
#X connect 53 1 55 0;
#X connect 54 0 53 0;
#X connect 55 0 48 0;
#X connect 56 0 162 0;
#X connect 58 0 47 0;
#X connect 59 0 71 0;
#X connect 60 0 85 0;
#X connect 61 0 60 0;
#X connect 62 0 64 0;
#X connect 63 0 73 0;
#X connect 64 0 60 1;
#X connect 68 0 61 0;
#X connect 68 1 70 0;
#X connect 69 0 68 0;
#X connect 70 0 63 0;
#X connect 71 0 162 1;
#X connect 73 0 62 0;
#X connect 74 0 77 0;
#X connect 76 0 0 0;
#X connect 77 0 76 0;
#X connect 78 0 4 0;
#X connect 78 1 4 1;
#X connect 79 0 81 0;
#X connect 81 0 25 0;
#X connect 82 1 23 0;
#X connect 82 1 4 0;
#X connect 82 1 29 0;
#X connect 82 1 44 0;
#X connect 82 1 59 0;
#X connect 82 1 89 0;
#X connect 82 1 102 0;
#X connect 82 1 115 0;
#X connect 82 1 128 0;
#X connect 83 0 29 0;
#X connect 83 1 29 1;
#X connect 84 0 44 0;
#X connect 84 1 44 1;
#X connect 85 0 59 0;
#X connect 85 1 59 1;
#X connect 89 0 101 0;
#X connect 90 0 141 0;
#X connect 91 0 90 0;
#X connect 92 0 94 0;
#X connect 93 0 154 0;
#X connect 94 0 90 1;
#X connect 98 0 91 0;
#X connect 98 1 100 0;
#X connect 99 0 98 0;
#X connect 100 0 93 0;
#X connect 101 0 163 0;
#X connect 102 0 114 0;
#X connect 103 0 142 0;
#X connect 104 0 103 0;
#X connect 105 0 107 0;
#X connect 106 0 155 0;
#X connect 107 0 103 1;
#X connect 111 0 104 0;
#X connect 111 1 113 0;
#X connect 112 0 111 0;
#X connect 113 0 106 0;
#X connect 114 0 163 1;
#X connect 115 0 127 0;
#X connect 116 0 143 0;
#X connect 117 0 116 0;
#X connect 118 0 120 0;
#X connect 119 0 156 0;
#X connect 120 0 116 1;
#X connect 124 0 117 0;
#X connect 124 1 126 0;
#X connect 125 0 124 0;
#X connect 126 0 119 0;
#X connect 127 0 164 0;
#X connect 128 0 140 0;
#X connect 129 0 144 0;
#X connect 130 0 129 0;
#X connect 131 0 133 0;
#X connect 132 0 157 0;
#X connect 133 0 129 1;
#X connect 137 0 130 0;
#X connect 137 1 139 0;
#X connect 138 0 137 0;
#X connect 139 0 132 0;
#X connect 140 0 164 1;
#X connect 141 0 89 0;
#X connect 141 1 89 1;
#X connect 142 0 102 0;
#X connect 142 1 102 1;
#X connect 143 0 115 0;
#X connect 143 1 115 1;
#X connect 144 0 128 0;
#X connect 144 1 128 1;
#X connect 154 0 92 0;
#X connect 155 0 105 0;
#X connect 156 0 118 0;
#X connect 157 0 131 0;
#X connect 158 0 160 0;
#X connect 160 0 18 0;
#X connect 161 0 165 0;
#X connect 162 0 165 1;
#X connect 163 0 166 0;
#X connect 164 0 166 1;
#X connect 165 0 167 0;
#X connect 166 0 167 1;
#X connect 167 0 168 1;
#X connect 168 0 170 0;
#X connect 170 0 169 0;
#X connect 171 0 173 0;
#X connect 173 0 27 0;
#X connect 174 0 175 0;
#X connect 174 0 173 0;
#X connect 174 0 176 0;
#X connect 175 0 18 0;
#X connect 176 0 81 0;
