#N canvas -7 0 639 628 12;
#X floatatom 37 234 5 0 0 0 - - -, f 5;
#X obj 37 261 mtof;
#X obj 125 302 triangle;
#X obj 216 302 sawtooth;
#X floatatom 138 234 5 0 0 0 - - -, f 5;
#X text 20 209 MIDI Pitch;
#X text 122 209 Cutoff Freq;
#X obj 307 302 square;
#X text 253 209 Phase reset;
#X obj 37 302 osc~;
#X obj 24 81 vradio 15 1 0 4 empty empty empty 0 -8 0 10 -262144 -1
-1 1;
#X text 44 78 Sine;
#X text 44 93 Triangle;
#X text 44 108 Sawtooth;
#X text 44 123 Square;
#X obj 361 230 route 0 1 2 3;
#X obj 37 362 sigswitch;
#X msg 47 334 0, f 2;
#X msg 73 334 1, f 2;
#X obj 125 362 sigswitch;
#X msg 135 334 0, f 2;
#X msg 161 334 1, f 2;
#X obj 216 362 sigswitch;
#X msg 226 334 0, f 2;
#X msg 252 334 1, f 2;
#X obj 307 362 sigswitch;
#X msg 317 334 0, f 2;
#X msg 343 334 1, f 2;
#X obj 371 92 inlet;
#X text 343 70 Pitch freq (Hz);
#X floatatom 24 56 5 0 127 0 - - -, f 5;
#X obj 371 117 ftom;
#X msg 346 45 set \$1;
#X obj 37 403 outlet~;
#X text 23 38 MIDI;
#X obj 371 142 ctrlbound 0 127;
#X obj 488 91 inlet;
#X obj 488 117 ctrlbound 0 3;
#X text 478 70 Wave type;
#X obj 346 18 round;
#X obj 548 171 inlet;
#X text 532 150 Phase reset;
#X msg 281 235 0, f 1;
#X connect 0 0 1 0;
#X connect 0 0 39 0;
#X connect 1 0 2 0;
#X connect 1 0 3 0;
#X connect 1 0 9 0;
#X connect 1 0 7 0;
#X connect 2 0 19 0;
#X connect 3 0 22 0;
#X connect 7 0 25 0;
#X connect 9 0 16 0;
#X connect 10 0 15 0;
#X connect 15 0 18 0;
#X connect 15 0 20 0;
#X connect 15 0 23 0;
#X connect 15 0 26 0;
#X connect 15 1 17 0;
#X connect 15 1 21 0;
#X connect 15 1 23 0;
#X connect 15 1 26 0;
#X connect 15 2 17 0;
#X connect 15 2 20 0;
#X connect 15 2 24 0;
#X connect 15 2 26 0;
#X connect 15 3 17 0;
#X connect 15 3 20 0;
#X connect 15 3 23 0;
#X connect 15 3 27 0;
#X connect 15 4 17 0;
#X connect 15 4 20 0;
#X connect 15 4 23 0;
#X connect 15 4 26 0;
#X connect 16 0 33 0;
#X connect 17 0 16 1;
#X connect 18 0 16 1;
#X connect 19 0 33 0;
#X connect 20 0 19 1;
#X connect 21 0 19 1;
#X connect 22 0 33 0;
#X connect 23 0 22 1;
#X connect 24 0 22 1;
#X connect 25 0 33 0;
#X connect 26 0 25 1;
#X connect 27 0 25 1;
#X connect 28 0 31 0;
#X connect 30 0 0 0;
#X connect 31 0 35 0;
#X connect 32 0 30 0;
#X connect 35 0 0 0;
#X connect 36 0 37 0;
#X connect 37 0 10 0;
#X connect 39 0 32 0;
#X connect 40 0 42 0;
#X connect 42 0 9 1;
#X connect 42 0 2 1;
#X connect 42 0 3 1;
#X connect 42 0 7 1;
#X coords 0 -1 1 1 100 125 1 20 20;
